<svg width="960" height="540" viewBox="0 0 960 540" role="img" xmlns="http://www.w3.org/2000/svg">
<title>LAST SPARK ステージ5 — ECLIPSE外縁部でRAYとTERRAが対峙する</title>
<desc>青みがかった冷たい鋼色の空間。密集した機械構造とパイプ、林立する塔の奥に、巨大なECLIPSE本体のシルエットが青白く光る単眼を覗かせる。シアン色に発光するロボットRAYが遠くのECLIPSEを見据え、その背後で少女TERRAが身を寄せて怯える一枚絵。</desc>

<defs>
<linearGradient id="s5sky" x1="0" y1="0" x2="0" y2="1">
<stop offset="0" stop-color="#070b12"/>
<stop offset="0.5" stop-color="#0c1119"/>
<stop offset="1" stop-color="#0e1620"/>
</linearGradient>
<radialGradient id="s5eye" cx="0.5" cy="0.5" r="0.5">
<stop offset="0" stop-color="#dfe6ff" stop-opacity="0.95"/>
<stop offset="0.35" stop-color="#9fb0ff" stop-opacity="0.55"/>
<stop offset="1" stop-color="#6f7dff" stop-opacity="0"/>
</radialGradient>
<radialGradient id="s5aura" cx="0.5" cy="0.5" r="0.5">
<stop offset="0" stop-color="#5a66c8" stop-opacity="0.3"/>
<stop offset="0.7" stop-color="#39408f" stop-opacity="0.1"/>
<stop offset="1" stop-color="#39408f" stop-opacity="0"/>
</radialGradient>
<radialGradient id="s5rayGlow" cx="0.5" cy="0.5" r="0.5">
<stop offset="0" stop-color="#37f7d8" stop-opacity="0.5"/>
<stop offset="0.6" stop-color="#37f7d8" stop-opacity="0.12"/>
<stop offset="1" stop-color="#37f7d8" stop-opacity="0"/>
</radialGradient>
<linearGradient id="s5floor" x1="0" y1="0" x2="0" y2="1">
<stop offset="0" stop-color="#10161f"/>
<stop offset="1" stop-color="#080c12"/>
</linearGradient>
</defs>

<!-- 空間 -->
<rect x="0" y="0" width="960" height="540" fill="url(#s5sky)"/>

<!-- ECLIPSE 本体の威光(中央奥) -->
<circle cx="600" cy="200" r="260" fill="url(#s5aura)"/>

<!-- 遠景: 林立する塔・アンテナ群(暗い鋼のシルエット) -->
<g fill="#0a0f17">
<rect x="40" y="120" width="34" height="300"/>
<rect x="36" y="108" width="42" height="14"/>
<rect x="100" y="200" width="22" height="220"/>
<rect x="150" y="160" width="40" height="260"/>
<rect x="146" y="150" width="48" height="12"/>
<rect x="820" y="140" width="38" height="280"/>
<rect x="816" y="128" width="46" height="14"/>
<rect x="880" y="190" width="26" height="230"/>
<rect x="916" y="150" width="30" height="270"/>
</g>
<!-- アンテナ・梁 -->
<g stroke="#0c121b" stroke-width="3" fill="none" opacity="0.9">
<path d="M57 108 L 57 70 M44 84 L 70 84 M48 96 L 66 96"/>
<path d="M170 150 L 170 110 M158 126 L 182 126"/>
<path d="M839 128 L 839 92 M827 108 L 851 108"/>
</g>

<!-- ECLIPSE 本体(巨大な八角コアのシルエット・単眼) -->
<g transform="translate(600 196)">
<!-- 装甲シルエット(非人型の塊) -->
<polygon points="-150,-40 -90,-120 90,-120 150,-40 150,70 90,150 -90,150 -150,70"
  fill="#0d1320" stroke="#1b2740" stroke-width="3"/>
<polygon points="-110,-20 -64,-84 64,-84 110,-20 110,52 64,110 -64,110 -110,52"
  fill="#0a1019"/>
<!-- 装甲の走査ライン -->
<g stroke="#27407a" stroke-width="2" opacity="0.5">
<line x1="-130" y1="0" x2="130" y2="0"/>
<line x1="-120" y1="40" x2="120" y2="40"/>
<line x1="-100" y1="-50" x2="100" y2="-50"/>
</g>
<!-- 単眼(青白い威光) -->
<circle cx="0" cy="14" r="120" fill="url(#s5eye)"/>
<ellipse cx="0" cy="14" rx="58" ry="30" fill="#121a2a"/>
<ellipse cx="0" cy="14" rx="56" ry="28" fill="#0a1019"/>
<ellipse cx="0" cy="14" rx="40" ry="20" fill="#c9d4ff" opacity="0.9"/>
<ellipse cx="0" cy="14" rx="18" ry="11" fill="#ffffff"/>
<!-- 虹彩のスリット -->
<rect x="-3" y="-2" width="6" height="32" rx="3" fill="#3a44a0"/>
</g>

<!-- 中景: 密集したパイプ・導管(冷たい鋼) -->
<g stroke="#141d2a" stroke-width="12" fill="none" opacity="0.9" stroke-linecap="round">
<path d="M0 360 L 200 360 L 240 320 L 360 320"/>
<path d="M960 380 L 760 380 L 720 340 L 600 340"/>
<path d="M120 420 L 320 420 L 360 392"/>
</g>
<g stroke="#223047" stroke-width="2" fill="none" opacity="0.6">
<path d="M0 354 L 200 354 L 240 314 L 360 314"/>
<path d="M960 374 L 760 374 L 720 334 L 600 334"/>
</g>
<!-- バルブ・継手の発光点 -->
<g fill="#4a78b0" opacity="0.7">
<circle cx="240" cy="320" r="5"/>
<circle cx="720" cy="340" r="5"/>
<circle cx="360" cy="392" r="4"/>
</g>

<!-- 床(冷たい金属の格子) -->
<rect x="0" y="430" width="960" height="110" fill="url(#s5floor)"/>
<rect x="0" y="430" width="960" height="3" fill="#2a3850" opacity="0.7"/>
<g stroke="#070b11" stroke-width="2" opacity="0.8">
<line x1="0" y1="470" x2="960" y2="470"/>
<line x1="0" y1="505" x2="960" y2="505"/>
<line x1="160" y1="430" x2="120" y2="540"/>
<line x1="360" y1="430" x2="340" y2="540"/>
<line x1="560" y1="430" x2="580" y2="540"/>
<line x1="760" y1="430" x2="800" y2="540"/>
</g>
<!-- 床に映る ECLIPSE の冷光 -->
<ellipse cx="600" cy="448" rx="240" ry="14" fill="#9fb0ff" opacity="0.06"/>

<!-- RAY: 立ち姿。ECLIPSE(右奥)を見据える。 -->
<g transform="translate(430 430)">
<!-- 発光ハロ -->
<ellipse cx="0" cy="-60" rx="118" ry="130" fill="url(#s5rayGlow)"/>
<!-- 接地影 -->
<ellipse cx="0" cy="6" rx="56" ry="12" fill="#060a10" opacity="0.6"/>
<!-- 脚 -->
<path d="M-22 -52 L -6 -52 L -8 4 L -28 4 Z" fill="#16242a"/>
<path d="M4 -52 L 22 -52 L 26 4 L 8 4 Z" fill="#1b2c33"/>
<!-- 胴 -->
<path d="M-26 -118 L 24 -118 L 18 -50 L -20 -50 Z" fill="#1d2f36"/>
<!-- 胸のコア -->
<circle cx="-2" cy="-92" r="11" fill="#37f7d8" opacity="0.35"/>
<circle cx="-2" cy="-92" r="6" fill="#9ffff0"/>
<!-- 腕(右手をやや前に・身構える) -->
<path d="M-26 -112 L -16 -110 L -28 -60 L -40 -62 Z" fill="#16242a"/>
<circle cx="-34" cy="-60" r="6" fill="#16242a"/>
<path d="M24 -114 L 36 -108 L 50 -78 L 40 -72 Z" fill="#22343c"/>
<circle cx="47" cy="-76" r="5" fill="#37f7d8"/>
<!-- 頭(右=ECLIPSE を向く) -->
<path d="M-14 -150 L 22 -150 L 18 -120 L -10 -120 Z" fill="#243740"/>
<rect x="-2" y="-142" width="22" height="9" rx="4" fill="#37f7d8"/>
<rect x="-4" y="-144" width="26" height="13" rx="6" fill="#37f7d8" opacity="0.25"/>
<!-- 縁の発光ライン -->
<path d="M-26 -118 L 24 -118 L 18 -50 L -20 -50 Z" fill="none" stroke="#37f7d8" stroke-width="1.2" opacity="0.5"/>
</g>

<!-- TERRA: RAY の背後(左)に身を寄せ、RAY の腕にすがる小さな少女 -->
<g transform="translate(372 436)">
<!-- 接地影 -->
<ellipse cx="0" cy="0" rx="24" ry="7" fill="#060a10" opacity="0.5"/>
<!-- 脚 -->
<rect x="-9" y="-32" width="8" height="32" rx="3" fill="#5e4530"/>
<rect x="2" y="-32" width="8" height="32" rx="3" fill="#6b4f38"/>
<rect x="-12" y="-5" width="13" height="6" rx="2" fill="#33251a"/>
<rect x="1" y="-5" width="13" height="6" rx="2" fill="#3a2a1c"/>
<!-- 胴(やや RAY 側へ傾ける) -->
<path d="M-15 -82 L 15 -82 L 20 -32 L -20 -32 Z" fill="#7d5e42"/>
<path d="M-10 -78 L 10 -78 L 15 -34 L -15 -34 Z" fill="#9a7650" opacity="0.85"/>
<!-- 腕: RAY 側へ伸ばしてすがる -->
<path d="M14 -78 L 30 -74 L 40 -66 L 36 -58 L 22 -64 L 10 -56 Z" fill="#7d5e42"/>
<circle cx="40" cy="-66" r="5" fill="#e8b89a"/>
<!-- もう一方の腕 -->
<path d="M-15 -76 L -22 -70 L -18 -44 L -10 -46 Z" fill="#7d5e42"/>
<circle cx="-20" cy="-44" r="5" fill="#eac4a8"/>
<!-- 頭(RAY を見上げる) -->
<circle cx="0" cy="-94" r="19" fill="#e8b89a"/>
<!-- 髪 -->
<path d="M-19 -96 Q-17 -117 0 -117 Q18 -117 19 -95 Q10 -108 0 -107 Q-12 -108 -19 -96 Z" fill="#4a3522"/>
<path d="M-19 -97 Q-22 -85 -17 -78 L-12 -91 Z" fill="#4a3522"/>
<path d="M19 -96 Q22 -85 17 -79 L12 -92 Z" fill="#4a3522"/>
<!-- 目(不安げに見上げる) -->
<circle cx="-7" cy="-96" r="2" fill="#2a1d14"/>
<circle cx="6" cy="-96" r="2" fill="#2a1d14"/>
<circle cx="-6.4" cy="-96.6" r="0.7" fill="#bfeef0"/>
<circle cx="6.6" cy="-96.6" r="0.7" fill="#bfeef0"/>
<!-- 口(きゅっと結ぶ) -->
<path d="M-4 -86 Q0 -84 4 -86" fill="none" stroke="#7a4a3a" stroke-width="1.4"/>
</g>

<!-- 冷たい塵・火花 -->
<g fill="#9fb0ff" opacity="0.2">
<circle cx="500" cy="300" r="1.8"/>
<circle cx="700" cy="260" r="1.5"/>
<circle cx="560" cy="360" r="1.6"/>
<circle cx="800" cy="320" r="1.4"/>
<circle cx="300" cy="300" r="1.5"/>
<circle cx="660" cy="120" r="1.4"/>
</g>

<!-- ビネット -->
<rect x="0" y="0" width="960" height="120" fill="#04060b" opacity="0.5"/>
<rect x="0" y="470" width="960" height="70" fill="#04060b" opacity="0.45"/>
<rect x="0" y="0" width="70" height="540" fill="#04060b" opacity="0.32"/>
<rect x="890" y="0" width="70" height="540" fill="#04060b" opacity="0.32"/>
</svg>
